<?xml version="1.0"?>
<svg xmlns="http://www.w3.org/2000/svg" id="Layer_1" data-name="Layer 1" viewBox="0 0 512 512" width="512" height="512"><title>Tick mark  Man</title><path d="M298.55,358.99a88,88,0,1,1-15.67,50.13A87.87,87.87,0,0,1,298.55,358.99Z" style="fill:#6fe3ff"/><path d="M306.55,469.16l-.69.64H262.27V396.57a52.012,52.012,0,0,1,28.57-42.2l.02-.05.15.05a49.717,49.717,0,0,1,7.54,4.62,88,88,0,0,0,8,110.17Z" style="fill:#e48e66"/><path d="M303.36,172.89a24.838,24.838,0,0,1-19.75,30.36v.16a97.51,97.51,0,1,1-195.02,0v-.15a24.831,24.831,0,0,1-20.52-24.45,25.118,25.118,0,0,1,.71-5.92A18.7,18.7,0,0,1,85.5,158.65l.11-.03a8.063,8.063,0,0,0,4.16,5.31s14.47,5.8,14.59,4.38l3.43-42.94a4,4,0,0,1,4.42-3.65l16.01,1.72a94.287,94.287,0,0,0,86.9-39.1l9.52.42a40.531,40.531,0,0,1,35.51,24.62l15.25,62.83,8.21-7.66a10.013,10.013,0,0,0,3.07-5.89h.03A18.676,18.676,0,0,1,303.36,172.89Z" style="fill:#f8ec7d"/><path d="M246.4,338.27l44.46,16.05-.02.05a52.012,52.012,0,0,0-28.57,42.2V469.8h-45.3L197.71,366l18.64,12.43,30-40v-.16Z" style="fill:#e48e66"/><path d="M186.11,14.88A103.153,103.153,0,0,1,289.02,125.13l-2.26,32.8c-.02.24-.04.49-.08.73a10.013,10.013,0,0,1-3.07,5.89l-8.21,7.66-15.25-62.83a40.531,40.531,0,0,0-35.51-24.62l-9.52-.42a94.287,94.287,0,0,1-86.9,39.1l-16.01-1.72a4,4,0,0,0-4.42,3.65l-3.43,42.94c-.12,1.42-14.59-4.38-14.59-4.38a8.063,8.063,0,0,1-4.16-5.31,7.038,7.038,0,0,1-.2-1.3l-2.22-32.19q-.255-3.63-.25-7.22A103.171,103.171,0,0,1,186.11,14.88Z" style="fill:#e48e66"/><polygon points="219.22 336.52 246.35 318.43 246.35 338.27 246.35 338.43 216.35 378.43 197.71 366 186.35 358.43 219.22 336.52" style="fill:#af593c"/><polygon points="246.35 318.43 219.22 336.52 219.22 307.25 246.35 318.43" style="fill:#af593c"/><path d="M219.22,307.25v29.27l-32.87,21.91-32.78-21.85V295.72l.11-.32a97.869,97.869,0,0,0,65.54-.24v12.09Z" style="fill:#e8da77"/><polygon points="216.97 469.8 217.18 470.94 187.18 494.94 157.18 470.94 157.39 469.8 176.91 364.72 186.35 358.43 197.71 366 216.97 469.8" style="fill:#6fe3ff"/><polygon points="153.57 336.58 186.35 358.43 176.91 364.72 156.35 378.43 126.35 338.43 126.35 338.28 126.35 318.43 153.57 336.58" style="fill:#af593c"/><path d="M156.35,378.43l20.56-13.71L157.39,469.8H110.7V396.57a52.012,52.012,0,0,0-28.57-42.2l-.05-.14,44.18-15.95h.09v.15Z" style="fill:#e48e66"/><polygon points="153.57 307.12 153.57 336.58 126.35 318.43 126.35 318.33 153.57 307.12" style="fill:#af593c"/><path d="M110.7,396.57V469.8H53.12V396.57a52,52,0,0,1,28.58-42.2l.38-.14.05.14A52.012,52.012,0,0,1,110.7,396.57Z" style="fill:#d38363"/><path d="M415.173,379.818a6,6,0,0,0-8.485-.1l-47.257,46.138-24.359-23.787a6,6,0,1,0-8.384,8.585l28.549,27.881a6,6,0,0,0,8.384,0l51.45-50.231A6,6,0,0,0,415.173,379.818Z" style="fill:#2561a1"/></svg>
